<svg class="motif_5" xmlns="http://www.w3.org/2000/svg" fill="#011d17" viewBox="0 0 476.09 481.37"><path d="M337.7,304.63c-1.73-5.07-3.25-9-4.43-13.08-2.14-7.31-3.54-8.39-10.9-7.76-11.81,1-11.81,1-8.43-10.07.15-.47.17-1,.3-1.47,2.67-9.61,2.29-10.54-6.49-15.81-6.58-4-6.55-4.95-.31-9.6,9.34-7,11.42-4.79,6-18.24-1-2.52-1.19-5.39-1.89-8.82,5.05,0,9.32-.14,13.57,0,3.92.16,6.15-1.46,7.34-5.24,1.57-5,3.53-9.92,5.66-15.79,4.19,3.07,7.74,5.46,11,8.14,5.34,4.34,5.93,4.42,11.44,0,1.95-1.57,3.89-3.15,5.91-4.62,4.65-3.4,6-3,7.63,2.42,1,3.18,2,6.34,2.8,9.57,1,4,3.12,5.93,7.44,5.48,3.31-.34,6.66-.11,10-.21,3.49-.11,4.55,1.8,3.65,4.77a75.66,75.66,0,0,1-3.74,9.75c-1.85,4-1.06,7,2.57,9.46q3.74,2.5,7.4,5.11c3,2.11,2.78,4.23,0,6.32a4.17,4.17,0,0,0-.4.3c-3.55,2.92-9,5.28-10.09,8.93s2.13,8.68,3.55,13.07c1.85,5.68,1.07,6.76-5,6.7-13.43-.13-13.42-.13-17.38,12.39-.4,1.27-1,2.48-1.37,3.75-1.09,3.58-3.19,3.94-6,1.87a77.37,77.37,0,0,1-7.06-5.56c-4.12-3.86-7.9-3.15-11.93.17C345.4,299.19,342,301.47,337.7,304.63Z" transform="translate(-115.21 -11.24)"/><path d="M498.72,219.69c5.82,0,11.67-.33,17.45.16,2.24.19,5.25,1.67,6.34,3.5,4.58,7.7,8.45,15.81,12.83,23.63a9.39,9.39,0,0,1,.09,9.87c-4.27,7.89-8.28,15.93-12.77,23.69a7.68,7.68,0,0,1-5.34,3.41c-12.62.45-25.27.75-37.88.43-3.17-.08-6.64-2.1-9.34-4.07-11.15-8.13-22-16.61-33.06-24.92-3.84-2.9-4.05-4.19-.12-7.08,11.9-8.78,23.84-17.52,36-26a17.11,17.11,0,0,1,8.36-2.57c5.79-.39,11.63-.12,17.46-.12Z" transform="translate(-115.21 -11.24)"/><path d="M276.13,251.53c-3.3,2.71-5.76,4.9-8.39,6.86-9.34,6.94-18.87,13.65-28.07,20.77a20,20,0,0,1-12.91,4.26c-11.3-.09-22.6-.27-33.9-.27a7.62,7.62,0,0,1-7.52-4.64c-3.76-7.59-7.94-15-11.27-22.77a12.26,12.26,0,0,1,.11-8.9c3.61-8,8.06-15.62,12-23.48,1.66-3.31,4.25-4.41,7.65-4.44,9.79-.11,19.59-.08,29.37-.4,7.2-.24,13.07,2.08,18.69,6.65,9.28,7.53,19.14,14.33,28.71,21.49C272.29,247.93,273.79,249.45,276.13,251.53Z" transform="translate(-115.21 -11.24)"/><path d="M439.63,299.26c6.63-.47,13.28-.77,19.89-1.44,7.48-.75,14.21.84,20.16,5.5,7.08,5.53,14.1,11.16,21.31,16.52,4.7,3.5,6.21,7.47,4.69,13.35a172,172,0,0,0-3.58,21.11c-.62,4.81-2.31,8.31-7,10.53-6.76,3.2-13.3,6.9-19.82,10.57a6.84,6.84,0,0,1-8.27-.49c-9.66-7.09-19.51-13.93-29-21.2a14.77,14.77,0,0,1-4.54-6.86c-4.38-13.25-8.44-26.61-12.62-39.93-2.3-7.31-1.74-8.13,5.77-8.21,4.33,0,8.66,0,13,0Z" transform="translate(-115.21 -11.24)"/><path d="M289.38,298.73a65.05,65.05,0,0,1-1.26,6.86c-4.22,13.81-8.4,27.65-12.93,41.36a15.68,15.68,0,0,1-5,7c-8.24,6.47-16.82,12.47-25.16,18.8-5.32,4-7.77,4.41-13.58,1.22-6.26-3.45-12.72-6.62-18.64-10.57a13.86,13.86,0,0,1-5.4-7.61c-1.93-8.05-2.93-16.32-4.42-24.48-.81-4.43-.24-8.17,3.76-11,7.87-5.56,15.82-11,23.39-17,6.31-5,13.15-6.3,21-5.81,10.11.62,20.26.44,30.4.66C283.83,298.19,286.13,298.47,289.38,298.73Z" transform="translate(-115.21 -11.24)"/><path d="M330,329.23c1.53,3.68,2.94,6.63,4,9.72,3.88,11.31,7.85,22.6,11.3,34.05a19.72,19.72,0,0,1,.25,10.58c-3.17,11-7.06,21.84-10.6,32.75-1.36,4.2-3.49,6.39-8.5,6.59-6.26.26-12.49,1.86-18.66,3.23-4.48,1-8.21.11-11.49-3-6.75-6.44-13.71-12.67-20.12-19.42a9.13,9.13,0,0,1-1.65-7.48c3.06-10.86,6.59-21.6,10.24-32.29.87-2.54,2.32-5.42,4.4-6.91,12.16-8.73,24.58-17.1,36.93-25.58C327,330.82,328.08,330.33,330,329.23Z" transform="translate(-115.21 -11.24)"/><path d="M289.1,203.57a43.41,43.41,0,0,1-6.41,1c-13.64.05-27.28.16-40.91-.23a17.71,17.71,0,0,1-9.12-3.38c-9.35-6.67-18.33-13.84-27.56-20.69-3.69-2.74-4.61-5.64-3.32-10.29,1.72-6.21,2.37-12.74,3.19-19.17.59-4.6,3-7.57,7-9.61,7.85-4,15.69-8,23.46-12.21,3.17-1.71,5.73-1.54,8.67.72,8.83,6.8,18,13.19,26.75,20,2.35,1.83,4.74,4.49,5.57,7.24,4.43,14.61,8.38,29.38,12.48,44.09A19.69,19.69,0,0,1,289.1,203.57Z" transform="translate(-115.21 -11.24)"/><path d="M347.89,124.26a48.36,48.36,0,0,1-1.21,5.3c-4.69,13.49-9.56,26.91-14.13,40.43-1.48,4.41-3.39,4.49-6.8,2-12.2-9-24.57-17.67-36.69-26.73-1.81-1.35-3-3.93-3.76-6.18-3.31-10.09-6.14-20.33-9.57-30.37-1.4-4.09-1.36-7.38,1.88-10.36,7.1-6.52,14.08-13.19,21.42-19.42,1.61-1.37,4.61-1.84,6.85-1.6,7.75.85,15.47,2,23.14,3.47,2,.37,4.68,1.79,5.26,3.38,4.62,12.61,8.81,25.37,13.12,38.09C347.61,122.9,347.72,123.56,347.89,124.26Z" transform="translate(-115.21 -11.24)"/><path d="M379.48,174.77c-3.91-11.23-7.62-21.85-11.3-32.47-.54-1.57-.66-3.35-1.47-4.75-5.82-10.05-3.7-19.62.75-29.55,3.24-7.23,5.38-15,7.8-22.57,1-3.12,2.8-4.48,6-4.82,7.61-.79,15.17-2.44,22.77-2.58a18.59,18.59,0,0,1,11.19,4c6.4,5.24,11.9,11.57,18,17.21,2.94,2.72,2.38,5.56,1.35,8.64C432,115.59,428.23,123.12,427,131c-1.69,10.91-8.06,17.12-16.66,22.6-8.13,5.18-15.68,11.27-23.55,16.85C384.67,172,382.29,173.14,379.48,174.77Z" transform="translate(-115.21 -11.24)"/><path d="M455.21,203.66c-10.15,0-20.29.07-30.43,0-5.75,0-6.34-.77-4.65-6.53,2.56-8.77,5.48-17.43,8.16-26.17,1.16-3.8,1.7-7.85,3.25-11.47,1.45-3.39,3.24-7.14,6-9.36,9.2-7.4,18.89-14.19,28.39-21.21,3.26-2.41,6.19-2.68,10-.32a123.05,123.05,0,0,0,16.57,8.05c5.25,2.25,8,5.86,8.8,11.6,1.15,7.89,2.9,15.69,4.66,23.47.95,4.25,0,7.13-3.74,9.75-8.3,5.81-16.52,11.8-24.32,18.28-4.5,3.73-9,5.16-14.69,4.28-2.6-.4-5.31-.06-8-.06Z" transform="translate(-115.21 -11.24)"/><path d="M379.55,329.14c7.17,4.87,13.92,9.34,20.55,14,5.58,3.92,11.42,7.6,16.38,12.21a33.44,33.44,0,0,1,8.29,11.93c3.7,9.57,6.29,19.55,9.58,29.29,1.11,3.29.62,5.79-1.86,8.08-7.2,6.65-14.12,13.67-21.75,19.79-2.4,1.91-6.8,2.21-10.14,1.86A185.72,185.72,0,0,1,379,422.46a7,7,0,0,1-4.3-3.87c-4.32-12.19-8.46-24.46-12.31-36.81a12.57,12.57,0,0,1,.5-7.28c4.94-14.27,10.12-28.46,15.24-42.68A29.72,29.72,0,0,1,379.55,329.14Z" transform="translate(-115.21 -11.24)"/><path d="M498.5,202.39a25.33,25.33,0,0,1,3.32-3.73c5.56-4.24,11.1-8.53,16.91-12.41,3.22-2.15,3.73-4.52,2.92-8-1.85-8.09-3.41-16.24-5-24.39a32.87,32.87,0,0,1,0-5c7.87,3.49,15.16,6.2,21.9,9.89,4.56,2.5,7.59,1.91,10.91-1.65,4.42-4.75,9.09-9.26,13.68-13.84,1.12-1.11,2.34-2.11,4.46-4a61.81,61.81,0,0,1,.44,7c-.47,8.15-1,16.3-1.69,24.42-.4,4.48.61,7.77,4.46,10.77,6.53,5.09,12.47,10.94,18.62,16.51.55.5.8,1.33,1.71,2.92l-14.91.72c-19.77,1-19.75,1-27.32,20-1.06,2.65-2.5,5.15-3.77,7.73h-1.54c-3.26-6.47-6.58-12.91-9.75-19.43-3-6.15-5-7.36-12.11-7-7.46.39-14.92.75-22.38,1.12Z" transform="translate(-115.21 -11.24)"/><path d="M245.79,467.29c-1.92-2.39-3.39-3.91-4.5-5.65-4.74-7.44-9.44-14.9-14-22.43-1.84-3-4.28-4.12-7.78-4.37-8.43-.6-16.82-1.65-25.22-2.59a13.44,13.44,0,0,1-2.95-1.3c1.77-1.65,3.07-3,4.55-4.19,5.77-4.49,11.53-9,17.45-13.31,3.16-2.28,3.86-4.83,2.94-8.59-1.6-6.6-2.7-13.31-3.9-20-.22-1.23.1-2.55.23-5.13,7.3,3.86,14,7,20.26,10.86,4.61,2.84,8.33,2.28,12.29-.83,5.1-4,10.28-7.91,15.44-11.84,1.27-1,2.61-1.82,5.14-3.58-.23,2.85-.09,4.39-.52,5.76-2.13,6.8-4.26,13.62-6.72,20.31-1.28,3.47-.77,5.91,2,8.38,6,5.31,11.73,10.85,17.5,16.36a55.49,55.49,0,0,1,4,4.93c-8.34,1.68-15.54,3.38-22.83,4.52-7.11,1.11-7.82,1.47-9.06,8.79-1,6.06-2,12.14-3,18.2C246.88,463.17,246.41,464.7,245.79,467.29Z" transform="translate(-115.21 -11.24)"/><path d="M278.82,77.37c-5.32,4.95-10.39,10.2-16,14.76-4.44,3.59-4.83,7.46-3.11,12.35,2.61,7.48,5,15,8,24.08-2.94-1.29-4.79-1.76-6.22-2.8-5.64-4.12-11.29-8.26-16.67-12.71-2.77-2.29-5.12-2.32-8.12-.66-7,3.86-14.08,7.52-21.16,11.2-1.42.75-3,1.27-5.23,2.22a71.45,71.45,0,0,1,.05-8.36c.77-5.93,1.75-11.83,2.78-17.72.52-3-.41-5.14-3.14-6.6q-8.58-4.57-17.09-9.28a18.33,18.33,0,0,1-6-5c5.49-1.4,11-2.84,16.47-4.19a34,34,0,0,1,6.83-1.36c11.13-.39,15.77-7.76,19.21-16.95,2.06-5.5,5-10.69,8.08-17.25A53.41,53.41,0,0,1,240,44.31c2.43,7.07,4.94,14.11,7.08,21.27,1.29,4.3,3.77,5.94,8.23,6.38,7.67.77,15.26,2.33,22.88,3.55Z" transform="translate(-115.21 -11.24)"/><path d="M356.18,403.71c2.45,7.55,4.67,14.11,6.71,20.72,3.11,10.1,3.06,10,13.33,11.24,6.54.77,13,1.86,19.35,2.77-4.83,5.39-8.92,11.11-14.15,15.45-5.43,4.49-7.19,8.84-4.47,15.46,2.27,5.5,3.76,11.34,5.48,17.06a59.09,59.09,0,0,1,1.09,6.2c-2.38-.75-4-1-5.29-1.72-5.91-3.38-11.81-6.79-17.58-10.4-4.08-2.56-7.92-3.31-12.62-1.23-9.22,4.08-18.68,7.64-29.68,12.08,1.27-3.64,1.88-6.06,2.92-8.28,2.53-5.41,4.86-11,8-16,2.63-4.17.93-6.88-1.67-9.66-4.21-4.49-8.59-8.81-12.82-13.28-1.21-1.28-2.16-2.81-4.07-5.34,7.66-1.15,14.24-2.4,20.88-3.09,13.21-1.37,13.2-1.26,17.34-14.07,1.69-5.21,3.48-10.39,5.27-15.57C354.38,405.63,354.83,405.31,356.18,403.71Z" transform="translate(-115.21 -11.24)"/><path d="M462.8,468.05c-1.09-4-2-6.57-2.47-9.24-1-5.55-1.93-11.13-2.49-16.75-.4-4-2.37-5.86-6.17-6.57-8-1.48-15.94-3.16-24.95-5a47.61,47.61,0,0,1,3.82-4.82c5.83-5.46,11.66-10.93,17.67-16.19,2.81-2.46,3.3-4.94,2-8.39-2.17-5.91-4-12-5.87-18-.67-2.16-1-4.43-1.47-6.65l1.12-.94c5.15,3.81,10.76,7.13,15.33,11.54,6.45,6.23,12.32,7.6,20,1.93,4.83-3.58,10.75-5.71,17.19-9-.23,2.63-.24,4.32-.55,6-1.27,6.68-2.55,13.37-4,20-.78,3.57.44,6.11,3.23,8.22,5.85,4.41,11.6,8.93,17.49,13.28a29.56,29.56,0,0,0,4.88,2.42l-1.6,2.7c-5.79.72-11.63,2.3-17.37,2-10.81-.59-18,3.5-22.6,13.28-2.55,5.37-6.24,10.2-9.48,15.24C465.7,464.42,464.66,465.6,462.8,468.05Z" transform="translate(-115.21 -11.24)"/><path d="M163.18,229.89c-2.9-6.25-6.33-12.32-8.55-18.8s-6.07-9.12-12.95-8.78c-6.61.32-13.28-.36-19.92-.67a27.41,27.41,0,0,1-4-.87c1.08-1.67,1.63-3.06,2.63-4,4.83-4.31,9.54-8.82,14.76-12.6s7.22-8,6.54-14.42c-1-9.37-1.06-18.84-1.59-29.83,3,2.21,5.21,3.49,7,5.21a147.56,147.56,0,0,1,12.16,12.48c3,3.6,5.95,3.67,9.65,1.95,5.58-2.6,11.14-5.23,16.76-7.72a65.84,65.84,0,0,1,6.6-2c-1.61,8.37-3,15.62-4.4,22.86-.06.32-.25.62-.32.94-2.39,9.91-2.35,9.85,5.92,15.88,4.84,3.52,9.52,7.25,14.28,10.89l2.37,1.79-.31,1.28c-2.35.16-4.69.46-7,.44-6,0-12,.15-18-.48-5.3-.57-7.76,1.77-9.77,6.24-3.1,6.9-6.77,13.54-10.21,20.28Z" transform="translate(-115.21 -11.24)"/><path d="M591.3,303.27c-5.09,4.65-9.81,9.83-15.37,13.83-6.32,4.54-9.16,9.45-8.16,17.62,1.07,8.76.24,17.75.24,27a32,32,0,0,1-4.38-3.05c-4.69-4.48-9.49-8.89-13.77-13.74-2.75-3.12-5.36-3.32-8.77-1.72-6.18,2.88-12.39,5.67-18.62,8.44-1.18.52-2.47.79-5,1.56,1-6.54,1-12.66,3.05-18,4.43-11.5,2-19.47-9.21-25.11-4.46-2.24-8.14-6-12.18-9.12l.44-1.78c4.67,0,9.36-.27,14,.05,16.93,1.17,16.92,1.24,24.3-13.9a87,87,0,0,1,7.66-13.29c.47,1,.94,2,1.4,3.05,2.81,6.2,5.9,12.29,8.33,18.64,1.82,4.8,5,6.74,9.82,6.77,6.66,0,13.32.08,20,.24a49.59,49.59,0,0,1,5.64.77C590.93,302.15,591.12,302.71,591.3,303.27Z" transform="translate(-115.21 -11.24)"/><path d="M390.53,14.54c-1,2.54-1.78,5.16-2.95,7.6-2.65,5.54-5.82,10.87-8,16.57-.74,1.9,0,5.26,1.4,6.94,3.76,4.63,8.25,8.67,12.32,13.07,1.64,1.77,2.94,3.85,5.17,6.8-7.77,1.13-14.37,2.4-21,3-12.84,1.15-12.85,1-16.94,13.23-2,5.91-3.93,11.84-5.89,17.75l-1.7,0c-1.77-5.26-3.66-10.48-5.28-15.78-5.52-18-2.45-13-19.7-16.08-4.72-.84-9.5-1.33-15.19-2.11a24.81,24.81,0,0,1,2.5-3.57c5.19-4.92,10.4-9.82,15.71-14.62,2.77-2.51,3.7-5.21,2.47-8.89C331.09,31.7,329.05,24.84,327,18c-.54-1.83-.73-3.76-1.28-6.75,2.45.81,4,1,5.34,1.8,5.89,3.4,11.83,6.75,17.5,10.5,4.3,2.85,8.34,3.3,13.12,1.22,9.11-4,18.39-7.51,27.59-11.23Z" transform="translate(-115.21 -11.24)"/><path d="M441.74,127c1.38-4.71,2.72-9.44,4.17-14.13,1.08-3.49,2.14-7,3.52-10.39,1.54-3.78.73-6.48-2.36-9.21-6.05-5.34-11.76-11.06-18.71-17.66,6.5-1.13,11.57-2,16.64-2.89a10,10,0,0,1,2.48-.26C458,73.28,462,67.15,464.07,58c1.33-6,3.77-11.83,6.19-19.18,2,2.59,3.14,3.7,3.77,5.07,2.85,6.17,5.68,12.36,8.23,18.66C484.09,67,486.85,70,491.83,71c8.62,1.74,17.18,3.82,25.74,5.82a43.23,43.23,0,0,1,4.77,1.86c-2.39,1.87-4,3.43-5.82,4.48-5.49,3.11-11,6.27-16.69,8.9-3.74,1.73-4.75,4.14-4.15,7.93,1,6.4,1.88,12.83,2.71,19.26a50,50,0,0,1,0,5.7,32.19,32.19,0,0,1-4.73-1.59c-7.2-3.81-14.4-7.64-21.5-11.65-3-1.71-5.46-1.47-8.19.7-5.34,4.25-10.87,8.25-16.37,12.3-1.53,1.12-3.21,2-4.82,3Z" transform="translate(-115.21 -11.24)"/><path d="M115.21,284.88c3.23,0,5.36-.27,7.4.06q9.81,1.56,19.55,3.54c3.4.68,5.39-.9,6.93-3.57,3.25-5.61,6.44-11.26,9.75-16.84,1-1.65,2.3-3.09,4.15-5.54,3.23,7.06,6.13,13.16,8.82,19.36,6.44,14.82,3.2,12.2,18.5,12.56,5.84.14,11.68.39,17.52.58l.5,1.89c-5.85,4-11.49,8.31-17.6,11.83-5.85,3.38-9,7-6.84,14.37,1.72,5.84,2,12.1,2.92,18.18a23.18,23.18,0,0,1-.22,3.73c-1.92-1-3.3-1.66-4.61-2.42-6.19-3.59-12.2-7.53-18.63-10.61-2-1-5.64-.51-7.73.68-6.19,3.54-12,7.83-18,11.71a67.65,67.65,0,0,1-6.61,3.24c.51-3.5.64-5.59,1.13-7.6,1.55-6.27,3.09-12.55,4.91-18.75,1.3-4.44.32-8.07-2.57-11.54-5.64-6.79-11.13-13.68-16.65-20.57C117.07,288.18,116.51,287,115.21,284.88Z" transform="translate(-115.21 -11.24)"/><path d="M294.69,334.13c1.41-5,2.76-10.1,4.26-15.11,1.62-5.39,3.5-10.7,5-16.1,1.25-4.38,4.11-5.61,8.29-5.14,7.61.85,12,5.65,11.92,13.5,0,1.24-.29,3-1.12,3.62-8.8,6.92-17.73,13.67-26.63,20.46Z" transform="translate(-115.21 -11.24)"/><path d="M413.18,335.39c-1.73-1.18-3.51-2.3-5.19-3.54-6.67-4.93-13.23-10-20-14.78-3.28-2.32-3.78-5.05-2.8-8.63,2.53-9.26,3.16-9.57,11.9-9.88,5.06-.18,7.52,1.79,8.83,6.56,2.18,8,4.86,15.83,7.24,23.75a57.12,57.12,0,0,1,1.15,5.71Z" transform="translate(-115.21 -11.24)"/><path d="M414.66,168.49a29.59,29.59,0,0,1-.63,4.59c-2.89,9-6,18-8.75,27-1.06,3.48-2.95,5-6.48,4.54a8.43,8.43,0,0,0-1,0c-8.94.13-12.71-3.43-12.8-12.49a5.94,5.94,0,0,1,1.8-4.28c8.31-6.39,16.79-12.56,25.25-18.76C412.51,168.8,413.24,168.82,414.66,168.49Z" transform="translate(-115.21 -11.24)"/><path d="M295.93,168c4.47,3.07,9,6,13.38,9.25s8.6,6.82,13,10.11c2.53,1.91,3.14,4.12,1.9,7-.34.75-.57,1.56-.84,2.34-2.61,7.7-7.43,10.23-15.36,7.77a5.29,5.29,0,0,1-3.09-2.86c-3.52-10.81-6.83-21.7-10.21-32.56Z" transform="translate(-115.21 -11.24)"/><path d="M353.72,353.91c-1.28-3.7-2.36-6.74-3.39-9.79-2.06-6.13-3.83-12.36-6.23-18.35-1.75-4.38-1.09-7.32,2.73-10.26,7-5.41,13.48-4.68,18.29,2.74a5,5,0,0,1,.57,3.73c-3.24,10.09-6.64,20.13-10,30.17C355.52,352.55,355,352.81,353.72,353.91Z" transform="translate(-115.21 -11.24)"/><path d="M355.52,150.37c1.5,3.95,3.11,7.86,4.47,11.85,2,5.95,3.84,12,5.89,17.91,1,2.86.76,5.18-1.94,6.92-.55.36-1.05.8-1.58,1.21-7.47,5.72-12.81,4.82-18.25-3.18a3.75,3.75,0,0,1-.7-2.71c3.41-10.65,6.95-21.25,10.45-31.87Z" transform="translate(-115.21 -11.24)"/><path d="M449.53,222.46A31.12,31.12,0,0,0,446,224.4c-7,5.08-14,10.14-20.83,15.39-3.33,2.55-6.29,3.07-9.85.34s-6.21-4.93-4.46-10.21c3.48-10.56,3.2-10.64,14.24-10.4,6.64.15,13.28.19,19.91.39a14.68,14.68,0,0,1,3.35.88Z" transform="translate(-115.21 -11.24)"/><path d="M261.31,219.68c8.59,0,17.19-.08,25.79,0,2.73,0,6.95-.37,7.88,1.09,2.33,3.66,4.61,8.44,4.14,12.43-.37,3.06-4.75,5.92-7.82,8.23-1,.76-3.91.08-5.3-.88-7.26-5-14.26-10.36-21.44-15.47a36.77,36.77,0,0,0-5.38-2.64Z" transform="translate(-115.21 -11.24)"/><path d="M448.54,284.3c-10.37,0-20.75.16-31.11-.17-1.54-.05-3.27-2.24-4.44-3.79-.95-1.27-1.24-3-1.72-4.63-1.78-5.74,1.68-12.34,7.4-13.79a5.08,5.08,0,0,1,3.68.76c8.16,5.69,16.24,11.5,24.29,17.34a14.14,14.14,0,0,1,2.23,2.56Z" transform="translate(-115.21 -11.24)"/><path d="M259.81,283.68c1.09-1.86,1.42-3.05,2.21-3.64q12-8.91,24.1-17.6a5.85,5.85,0,0,1,3.71-.95c6,.66,10.29,7.78,8.31,13.48-3.21,9.19-3.21,9-13.19,8.76C276.88,283.5,268.8,283.68,259.81,283.68Z" transform="translate(-115.21 -11.24)"/></svg>